HIERARCHY
ROOT Hips
{
 OFFSET 0.000000 0.000000 0.000000
 CHANNELS 6 Xposition Yposition Zposition Yrotation Xrotation Zrotation
 JOINT Chest
 {
  OFFSET 0.000000 9.857222 0.000240
  CHANNELS 3 Yrotation Xrotation Zrotation
  JOINT Chest2
  {
   OFFSET 0.000000 10.876940 -0.000436
   CHANNELS 3 Yrotation Xrotation Zrotation
   JOINT Chest3
   {
    OFFSET 0.000000 9.827798 0.000000
    CHANNELS 3 Yrotation Xrotation Zrotation
    JOINT Chest4
    {
     OFFSET 0.000000 9.827798 0.000000
     CHANNELS 3 Yrotation Xrotation Zrotation
     JOINT Neck
     {
      OFFSET 0.000000 13.831992 0.000000
      CHANNELS 3 Yrotation Xrotation Zrotation
      JOINT Head
      {
       OFFSET 0.000000 9.147643 -0.001036
       CHANNELS 3 Yrotation Xrotation Zrotation
       End Site
       {
        OFFSET 0.000000 17.515799 -0.000541
       }
      }
     }
     JOINT RightCollar
     {
      OFFSET -3.001579 7.717577 0.000000
      CHANNELS 3 Yrotation Xrotation Zrotation
      JOINT RightShoulder
      {
       OFFSET -14.002642 0.000000 0.000000
       CHANNELS 3 Yrotation Xrotation Zrotation
       JOINT RightElbow
       {
        OFFSET -30.053852 0.000000 0.000000
        CHANNELS 3 Yrotation Xrotation Zrotation
        JOINT RightWrist
        {
         OFFSET -24.564923 0.000000 -0.000000
         CHANNELS 3 Yrotation Xrotation Zrotation
         End Site
         {
          OFFSET -18.334355 0.000000 0.000000
         }
        }
       }
      }
     }
     JOINT LeftCollar
     {
      OFFSET 3.001579 7.717577 0.000000
      CHANNELS 3 Yrotation Xrotation Zrotation
      JOINT LeftShoulder
      {
       OFFSET 14.002642 0.000000 0.000000
       CHANNELS 3 Yrotation Xrotation Zrotation
       JOINT LeftElbow
       {
        OFFSET 30.053852 0.000000 0.000000
        CHANNELS 3 Yrotation Xrotation Zrotation
        JOINT LeftWrist
        {
         OFFSET 24.564923 0.000000 -0.000000
         CHANNELS 3 Yrotation Xrotation Zrotation
         End Site
         {
          OFFSET 18.334355 0.000000 0.000000
         }
        }
       }
      }
     }
    }
   }
  }
 }
 JOINT RightHip
 {
  OFFSET -8.003235 -0.001175 -0.000120
  CHANNELS 3 Yrotation Xrotation Zrotation
  JOINT RightKnee
  {
   OFFSET 0.000000 -41.759727 0.000113
   CHANNELS 3 Yrotation Xrotation Zrotation
   JOINT RightAnkle
   {
    OFFSET 0.000000 -40.728748 0.000159
    CHANNELS 3 Yrotation Xrotation Zrotation
    JOINT RightToe
    {
     OFFSET 0.000000 -6.515296 14.732841
     CHANNELS 3 Yrotation Xrotation Zrotation
     End Site
     {
      OFFSET 0.000000 -1.502839 6.412115
     }
    }
   }
  }
 }
 JOINT LeftHip
 {
  OFFSET 8.003235 -0.001175 -0.000120
  CHANNELS 3 Yrotation Xrotation Zrotation
  JOINT LeftKnee
  {
   OFFSET 0.000000 -41.759727 0.000113
   CHANNELS 3 Yrotation Xrotation Zrotation
   JOINT LeftAnkle
   {
    OFFSET 0.000000 -40.728748 0.000159
    CHANNELS 3 Yrotation Xrotation Zrotation
    JOINT LeftToe
    {
     OFFSET 0.000000 -6.515296 14.732841
     CHANNELS 3 Yrotation Xrotation Zrotation
     End Site
     {
      OFFSET 0.000000 -1.502839 6.412115
     }
    }
   }
  }
 }
}
MOTION
Frames: 8
Frame Time: 0.016667
0.000000 88.822259 0.000000 0.000000 -5.826342 0.000000 0.000000 11.116423 0.000000 0.000000 -5.290081 0.000000 0.000000 0.000000 0.000000 0.000000 0.000000 0.000000 0.000000 12.665069 0.000000 0.000000 0.575450 0.000000 0.000000 0.000000 0.000000 0.000000 0.000000 0.000000 2.337306 0.000000 0.000000 -2.337306 0.000000 0.000000 0.000000 0.000000 0.000000 0.000000 0.000000 0.000000 -2.337306 0.000000 0.000000 2.337306 0.000000 0.000000 0.000000 8.578828 0.000000 0.000000 1.905768 0.000000 0.000000 -4.658254 0.000000 0.000000 0.000000 0.000000 0.000000 8.578828 0.000000 0.000000 1.905768 0.000000 0.000000 -4.658254 0.000000 0.000000 0.000000 0.000000
22.092185 90.271492 18.513796 -30.437635 -4.213870 0.972073 -0.761881 2.277800 -1.043077 -0.287660 0.962286 -0.383053 -0.287660 0.962286 -0.383053 -0.215137 0.721896 -0.286830 -8.252955 18.687483 2.176618 -15.825578 -0.779283 6.613927 7.147744 -0.997126 8.308142 49.421216 -3.082686 92.164666 4.436645 32.817091 4.884488 2.677576 13.550758 1.533136 -19.719002 3.324459 -10.513524 -28.914498 17.500500 -63.378218 -36.376910 22.742876 -14.953416 -3.725208 12.237246 11.171054 -8.903463 14.519320 -10.423258 -1.549060 -6.842437 5.513852 -2.019760 -3.690158 3.080268 -0.284608 0.082657 -0.083291 -1.932308 5.623545 1.278958 4.198477 3.203342 0.625482 2.026328 -3.707006 -3.031713 0.045888 0.054288 0.034608
22.076568 90.268534 18.549505 -30.363116 -4.344222 0.955763 -0.832238 2.368103 -1.033311 -0.294198 0.975101 -0.382203 -0.294198 0.975101 -0.382203 -0.220034 0.731510 -0.286176 -8.253794 18.727603 2.168686 -15.820486 -0.706358 6.594354 7.283551 -0.702453 8.341750 49.809567 -3.508389 91.508027 4.056527 33.087746 5.506829 3.091816 13.447038 1.367135 -19.783485 3.346021 -10.607668 -29.425712 17.505215 -63.447859 -36.218826 22.612914 -14.709262 -3.741671 12.369287 11.275966 -8.977032 14.709263 -10.442326 -1.650502 -6.862094 5.548974 -2.028629 -3.728865 3.045954 -0.254095 0.095747 -0.066263 -1.979114 5.769429 1.288454 4.110521 3.210484 0.615692 2.087514 -3.738232 -3.038256 0.045424 0.062343 0.040147
22.046017 90.267782 18.567825 -30.359042 -4.482705 0.918460 -0.865651 2.447626 -0.993341 -0.298866 1.002273 -0.375315 -0.298866 1.002273 -0.375315 -0.223528 0.751889 -0.280989 -8.253666 18.741467 2.157822 -15.815418 -0.682441 6.572665 7.488706 -0.502567 8.374812 50.386315 -3.883343 90.872875 3.612823 33.325363 6.009187 3.508229 13.399466 1.292502 -19.840068 3.341323 -10.688794 -29.701947 17.565201 -63.446760 -36.227195 22.611274 -14.557897 -3.732868 12.400406 11.389821 -9.027773 14.890155 -10.430752 -1.748422 -6.881780 5.590846 -2.059190 -3.743965 2.975877 -0.206198 0.104604 -0.032403 -1.999500 5.926031 1.354855 4.054714 3.224998 0.574744 2.134823 -3.770392 -3.048734 0.043493 0.064978 0.044864
22.013839 90.271240 18.569910 -30.410076 -4.628710 0.878914 -0.864206 2.529653 -0.937533 -0.306353 1.050830 -0.361603 -0.306353 1.050830 -0.361603 -0.229136 0.788304 -0.270668 -8.248143 18.718867 2.138476 -15.801570 -0.727768 6.538745 7.818253 -0.475348 8.413376 51.176570 -4.099459 90.221270 3.202947 33.641387 6.467512 3.941225 13.275244 1.306079 -19.874102 3.270227 -10.765024 -29.849392 17.792495 -63.295913 -36.402094 22.431808 -14.536545 -3.702218 12.527307 11.528750 -9.010028 15.045551 -10.381037 -1.809994 -6.877753 5.583577 -2.085597 -3.751337 2.917088 -0.171222 0.109632 -0.002765 -1.981244 6.094572 1.429443 3.987400 3.225681 0.529373 2.212577 -3.785322 -3.055559 0.037547 0.061080 0.044578
21.991010 90.276891 18.579495 -30.454065 -4.818032 0.853219 -0.896647 2.662630 -0.889023 -0.318131 1.109767 -0.342414 -0.318131 1.109767 -0.342414 -0.237969 0.832504 -0.256225 -8.229234 18.671418 2.105462 -15.761467 -0.822704 6.479116 8.101631 -0.269601 8.417738 52.246179 -4.422166 89.337200 2.783651 34.186980 7.016483 4.326969 13.110962 1.252402 -19.852479 3.143671 -10.825829 -30.090945 18.072444 -63.161676 -36.526852 22.198933 -14.586771 -3.665497 12.546465 11.578638 -9.182581 15.223902 -10.407686 -1.664142 -6.894199 5.564518 -2.009928 -3.760696 2.872791 -0.157447 0.111617 0.016283 -2.052780 6.306444 1.461511 4.000269 3.225891 0.507522 2.282022 -3.791153 -3.065167 0.028096 0.048116 0.041714
21.987555 90.281950 18.595974 -30.532951 -5.031156 0.854434 -0.931950 2.816241 -0.876325 -0.324268 1.171388 -0.320999 -0.324268 1.171388 -0.320999 -0.242577 0.878712 -0.240119 -8.198965 18.618563 2.064023 -15.698422 -0.930289 6.401302 8.265106 -0.191782 8.380011 53.581237 -4.765190 88.458364 2.241990 34.719327 7.454055 4.670496 12.828855 1.133301 -19.811143 3.019000 -10.835364 -30.793331 18.314794 -63.267172 -36.245228 21.596704 -14.524663 -3.680179 12.454427 11.545241 -9.429246 15.394570 -10.550030 -1.397672 -6.905143 5.590205 -1.944685 -3.762635 2.872386 -0.212379 0.108971 -0.000497 -2.103505 6.530050 1.458909 4.043927 3.250272 0.478895 2.305210 -3.806129 -3.059284 0.027521 0.029661 0.041401
21.992903 90.287375 18.604908 -30.655860 -5.233962 0.823395 -0.963078 2.947087 -0.829780 -0.331520 1.224259 -0.295282 -0.331520 1.224259 -0.295282 -0.248039 0.918355 -0.220789 -8.155546 18.579043 2.004683 -15.604218 -1.017525 6.284943 8.419192 -0.195442 8.297667 55.195680 -5.121121 87.535685 1.592758 34.769449 7.609062 4.949959 12.626546 0.996423 -19.789858 2.935145 -10.842359 -31.411454 18.365336 -63.510943 -35.747785 20.916833 -14.535192 -3.733664 12.483607 11.429428 -9.499174 15.559428 -10.601321 -1.233061 -6.897067 5.593921 -1.987947 -3.755845 2.861045 -0.224118 0.106275 -0.002193 -2.090381 6.739050 1.482157 4.052589 3.279706 0.465099 2.370108 -3.830742 -3.057332 0.026378 0.022690 0.040446
